<mxfile host="app.diagrams.net" agent="Mozilla/5.0 (X11; Linux x86_64; rv:128.0) Gecko/20100101 Firefox/128.0" version="28.0.6">
  <diagram name="Page-1" id="RuPzdUBmyt86ryWjd2W7">
    <mxGraphModel dx="1188" dy="666" grid="1" gridSize="10" guides="1" tooltips="1" connect="1" arrows="1" fold="1" page="1" pageScale="1" pageWidth="850" pageHeight="1100" math="0" shadow="0">
      <root>
        <mxCell id="0" />
        <mxCell id="1" parent="0" />
        <mxCell id="-xbYMC1aSQzUmu_914A_-1" value="&lt;div&gt;&lt;font style=&quot;font-size: 16px;&quot;&gt;&lt;font&gt;ESP32-S3 SoC&lt;/font&gt;&lt;/font&gt;&lt;/div&gt;&lt;br&gt;&lt;font style=&quot;font-size: 15px;&quot;&gt;(master)&lt;/font&gt;" style="rounded=1;whiteSpace=wrap;html=1;" vertex="1" parent="1">
          <mxGeometry x="40" y="80" width="170" height="350" as="geometry" />
        </mxCell>
        <mxCell id="-xbYMC1aSQzUmu_914A_-3" value="&lt;div&gt;&lt;font style=&quot;font-size: 15px;&quot;&gt;Xilinx Zybo Z7-20&lt;/font&gt;&lt;/div&gt;&lt;div&gt;&lt;font style=&quot;font-size: 15px;&quot;&gt;&lt;font&gt;(slave)&lt;/font&gt;&lt;font&gt;&lt;br&gt;&lt;/font&gt;&lt;/font&gt;&lt;/div&gt;" style="rounded=1;whiteSpace=wrap;html=1;" vertex="1" parent="1">
          <mxGeometry x="580" y="80" width="170" height="350" as="geometry" />
        </mxCell>
        <mxCell id="-xbYMC1aSQzUmu_914A_-4" value="" style="endArrow=classic;html=1;rounded=0;exitX=0.982;exitY=0.057;exitDx=0;exitDy=0;entryX=-0.013;entryY=0.057;entryDx=0;entryDy=0;entryPerimeter=0;exitPerimeter=0;strokeWidth=2;" edge="1" parent="1" source="-xbYMC1aSQzUmu_914A_-1" target="-xbYMC1aSQzUmu_914A_-3">
          <mxGeometry width="50" height="50" relative="1" as="geometry">
            <mxPoint x="400" y="320" as="sourcePoint" />
            <mxPoint x="400" y="130" as="targetPoint" />
          </mxGeometry>
        </mxCell>
        <mxCell id="-xbYMC1aSQzUmu_914A_-5" value="&lt;div&gt;SCLK&lt;/div&gt;" style="text;html=1;align=center;verticalAlign=middle;whiteSpace=wrap;rounded=0;" vertex="1" parent="1">
          <mxGeometry x="365" y="50" width="60" height="30" as="geometry" />
        </mxCell>
        <mxCell id="-xbYMC1aSQzUmu_914A_-6" value="&lt;p style=&quot;white-space: pre-wrap;&quot; dir=&quot;auto&quot;&gt;&lt;font&gt;GPIO12 (FSPICLK) – J1 pin 14&lt;/font&gt;&lt;/p&gt;" style="text;html=1;align=center;verticalAlign=middle;whiteSpace=wrap;rounded=0;" vertex="1" parent="1">
          <mxGeometry x="210" y="60" width="110" height="30" as="geometry" />
        </mxCell>
        <mxCell id="-xbYMC1aSQzUmu_914A_-8" value="" style="endArrow=classic;startArrow=classic;html=1;rounded=0;entryX=0.012;entryY=0.226;entryDx=0;entryDy=0;entryPerimeter=0;exitX=1.007;exitY=0.223;exitDx=0;exitDy=0;exitPerimeter=0;strokeWidth=2;" edge="1" parent="1" source="-xbYMC1aSQzUmu_914A_-1" target="-xbYMC1aSQzUmu_914A_-3">
          <mxGeometry width="50" height="50" relative="1" as="geometry">
            <mxPoint x="213" y="158" as="sourcePoint" />
            <mxPoint x="440" y="200" as="targetPoint" />
          </mxGeometry>
        </mxCell>
        <mxCell id="-xbYMC1aSQzUmu_914A_-9" value="MOSI" style="text;html=1;align=center;verticalAlign=middle;whiteSpace=wrap;rounded=0;" vertex="1" parent="1">
          <mxGeometry x="365" y="110" width="60" height="30" as="geometry" />
        </mxCell>
        <mxCell id="-xbYMC1aSQzUmu_914A_-10" value="&lt;p style=&quot;white-space: pre-wrap;&quot; dir=&quot;auto&quot;&gt;GPIO11 (FSPID) – J1 pin 13&lt;/p&gt;" style="text;html=1;align=center;verticalAlign=middle;whiteSpace=wrap;rounded=0;" vertex="1" parent="1">
          <mxGeometry x="220" y="120" width="100" height="30" as="geometry" />
        </mxCell>
        <mxCell id="-xbYMC1aSQzUmu_914A_-11" value="" style="endArrow=classic;startArrow=classic;html=1;rounded=0;exitX=1.002;exitY=0.457;exitDx=0;exitDy=0;exitPerimeter=0;entryX=0.002;entryY=0.459;entryDx=0;entryDy=0;entryPerimeter=0;strokeWidth=2;" edge="1" parent="1" source="-xbYMC1aSQzUmu_914A_-1" target="-xbYMC1aSQzUmu_914A_-3">
          <mxGeometry width="50" height="50" relative="1" as="geometry">
            <mxPoint x="390" y="250" as="sourcePoint" />
            <mxPoint x="440" y="200" as="targetPoint" />
          </mxGeometry>
        </mxCell>
        <mxCell id="-xbYMC1aSQzUmu_914A_-12" value="MISO" style="text;html=1;align=center;verticalAlign=middle;whiteSpace=wrap;rounded=0;" vertex="1" parent="1">
          <mxGeometry x="365" y="180" width="60" height="30" as="geometry" />
        </mxCell>
        <mxCell id="-xbYMC1aSQzUmu_914A_-13" value="&lt;p style=&quot;white-space: pre-wrap;&quot; dir=&quot;auto&quot;&gt;GPIO13 (FSPIQ) – J1 pin 15&lt;/p&gt;" style="text;html=1;align=center;verticalAlign=middle;whiteSpace=wrap;rounded=0;" vertex="1" parent="1">
          <mxGeometry x="215" y="200" width="100" height="20" as="geometry" />
        </mxCell>
        <mxCell id="-xbYMC1aSQzUmu_914A_-14" value="" style="endArrow=classic;html=1;rounded=0;exitX=0.997;exitY=0.678;exitDx=0;exitDy=0;exitPerimeter=0;entryX=-0.003;entryY=0.685;entryDx=0;entryDy=0;entryPerimeter=0;strokeWidth=2;" edge="1" parent="1" source="-xbYMC1aSQzUmu_914A_-1" target="-xbYMC1aSQzUmu_914A_-3">
          <mxGeometry width="50" height="50" relative="1" as="geometry">
            <mxPoint x="390" y="250" as="sourcePoint" />
            <mxPoint x="440" y="200" as="targetPoint" />
          </mxGeometry>
        </mxCell>
        <mxCell id="-xbYMC1aSQzUmu_914A_-15" value="CS" style="text;html=1;align=center;verticalAlign=middle;whiteSpace=wrap;rounded=0;" vertex="1" parent="1">
          <mxGeometry x="365" y="270" width="60" height="30" as="geometry" />
        </mxCell>
        <mxCell id="-xbYMC1aSQzUmu_914A_-16" value="&lt;p style=&quot;white-space: pre-wrap;&quot; dir=&quot;auto&quot;&gt;GPIO10 (FSPICS0) – J1 pin 12&lt;/p&gt;" style="text;html=1;align=center;verticalAlign=middle;whiteSpace=wrap;rounded=0;" vertex="1" parent="1">
          <mxGeometry x="215" y="280" width="110" height="20" as="geometry" />
        </mxCell>
        <mxCell id="-xbYMC1aSQzUmu_914A_-17" value="J1 headers" style="swimlane;" vertex="1" parent="1">
          <mxGeometry x="210" y="30" width="130" height="360" as="geometry" />
        </mxCell>
        <mxCell id="-xbYMC1aSQzUmu_914A_-28" value="PIN 22" style="text;html=1;align=center;verticalAlign=middle;whiteSpace=wrap;rounded=0;" vertex="1" parent="-xbYMC1aSQzUmu_914A_-17">
          <mxGeometry x="35" y="300" width="60" height="30" as="geometry" />
        </mxCell>
        <mxCell id="-xbYMC1aSQzUmu_914A_-22" value="PMOD JA" style="swimlane;" vertex="1" parent="1">
          <mxGeometry x="450" y="30" width="130" height="360" as="geometry" />
        </mxCell>
        <mxCell id="-xbYMC1aSQzUmu_914A_-29" value="PIN 5" style="text;html=1;align=center;verticalAlign=middle;whiteSpace=wrap;rounded=0;" vertex="1" parent="-xbYMC1aSQzUmu_914A_-22">
          <mxGeometry x="35" y="300" width="60" height="30" as="geometry" />
        </mxCell>
        <mxCell id="-xbYMC1aSQzUmu_914A_-19" value="PIN 4- K14" style="text;html=1;align=center;verticalAlign=middle;whiteSpace=wrap;rounded=0;" vertex="1" parent="-xbYMC1aSQzUmu_914A_-22">
          <mxGeometry x="30" y="30" width="70" height="30" as="geometry" />
        </mxCell>
        <mxCell id="-xbYMC1aSQzUmu_914A_-21" value="PIN 2- L14" style="text;html=1;align=center;verticalAlign=middle;whiteSpace=wrap;rounded=0;" vertex="1" parent="-xbYMC1aSQzUmu_914A_-22">
          <mxGeometry x="40" y="90" width="60" height="30" as="geometry" />
        </mxCell>
        <mxCell id="-xbYMC1aSQzUmu_914A_-20" value="PIN 3- K16" style="text;html=1;align=center;verticalAlign=middle;whiteSpace=wrap;rounded=0;" vertex="1" parent="-xbYMC1aSQzUmu_914A_-22">
          <mxGeometry x="30" y="165" width="70" height="30" as="geometry" />
        </mxCell>
        <mxCell id="-xbYMC1aSQzUmu_914A_-18" value="PIN 1- N15" style="text;html=1;align=center;verticalAlign=middle;whiteSpace=wrap;rounded=0;" vertex="1" parent="-xbYMC1aSQzUmu_914A_-22">
          <mxGeometry x="30" y="240" width="70" height="30" as="geometry" />
        </mxCell>
        <mxCell id="-xbYMC1aSQzUmu_914A_-26" value="" style="endArrow=classic;startArrow=classic;html=1;rounded=0;exitX=1.012;exitY=0.816;exitDx=0;exitDy=0;exitPerimeter=0;entryX=-0.013;entryY=0.823;entryDx=0;entryDy=0;entryPerimeter=0;strokeWidth=2;" edge="1" parent="1" source="-xbYMC1aSQzUmu_914A_-1" target="-xbYMC1aSQzUmu_914A_-3">
          <mxGeometry width="50" height="50" relative="1" as="geometry">
            <mxPoint x="380" y="460" as="sourcePoint" />
            <mxPoint x="430" y="410" as="targetPoint" />
          </mxGeometry>
        </mxCell>
        <mxCell id="-xbYMC1aSQzUmu_914A_-27" value="GND" style="text;html=1;align=center;verticalAlign=middle;whiteSpace=wrap;rounded=0;" vertex="1" parent="1">
          <mxGeometry x="365" y="330" width="60" height="30" as="geometry" />
        </mxCell>
      </root>
    </mxGraphModel>
  </diagram>
</mxfile>
